<?xml version="1.0" standalone="no"?>
<!DOCTYPE svg PUBLIC "-//W3C//DTD SVG 20010904//EN"
 "http://www.w3.org/TR/2001/REC-SVG-20010904/DTD/svg10.dtd">
<svg version="1.0" xmlns="http://www.w3.org/2000/svg"
 width="200.000000pt" height="200.000000pt" viewBox="0 0 200.000000 200.000000"
 preserveAspectRatio="xMidYMid meet">
<metadata>
Created by potrace 1.11, written by Peter Selinger 2001-2013
</metadata>
<g transform="translate(0.000000,200.000000) scale(0.100000,-0.100000)"
fill="#000000" stroke="none">
<path d="M943 1990 c-27 -11 -714 -403 -766 -437 -23 -15 -46 -41 -58 -66 -17
-39 -19 -71 -19 -487 0 -413 2 -448 19 -486 10 -23 32 -50 47 -61 16 -11 197
-116 403 -234 353 -202 377 -214 425 -214 48 0 73 13 431 218 209 121 396 234
415 253 l35 34 0 490 0 490 -35 34 c-19 19 -206 132 -415 252 -390 223 -425
239 -482 214z m323 -594 c193 -100 260 -139 262 -154 3 -20 -11 -28 -470 -264
l-57 -30 -245 127 c-264 136 -290 152 -281 175 5 14 497 277 521 279 7 1 128
-59 270 -133z m-482 -416 c106 -55 203 -100 216 -100 13 0 110 45 216 100
l194 100 60 -30 c63 -32 72 -47 43 -72 -10 -8 -129 -72 -265 -142 l-248 -127
-227 117 c-265 137 -303 159 -303 179 0 11 95 71 118 75 2 0 90 -45 196 -100z
m0 -245 c123 -64 193 -95 216 -95 22 0 94 32 221 98 l189 97 57 -30 c58 -31
68 -42 55 -61 -4 -6 -121 -70 -261 -143 -198 -103 -258 -130 -275 -124 -48 18
-495 254 -506 268 -6 8 -9 19 -5 25 8 13 95 59 113 60 7 0 95 -43 196 -95z"/>
</g>
</svg>
